<svg width="33" height="33" viewBox="0 0 33 33" fill="none" xmlns="http://www.w3.org/2000/svg">
<circle cx="16.5" cy="16.5" r="16.5" fill="#749000"/>
<g clip-path="url(#clip0_1_1997)">
<path fill-rule="evenodd" clip-rule="evenodd" d="M7.39388 13.7274L15.6898 8L24.028 13.7274H7.39388ZM26.3132 21.5404C26.8389 21.8257 26.8649 22.2758 27 22.8082H19.2803C19.4154 22.2758 19.4414 21.8257 19.9671 21.5404C20.8411 21.065 21.7396 21.5436 22.1563 20.3566C22.0244 20.2044 21.9105 20.0333 21.8014 19.8653L21.4434 19.3106C21.3132 19.1204 21.2448 18.9461 21.2399 18.8035C21.2383 18.7369 21.2497 18.6751 21.2757 18.6228C21.3018 18.5674 21.3441 18.5198 21.3994 18.4834C21.4255 18.4659 21.4548 18.4517 21.4857 18.4406C21.4629 18.1395 21.4531 17.7607 21.4694 17.4437C21.4775 17.3677 21.4922 17.2932 21.5133 17.2171C21.6045 16.8986 21.834 16.6418 22.1188 16.4659C22.2751 16.3693 22.4476 16.2948 22.6266 16.2456C22.7406 16.2139 22.5306 15.8605 22.6478 15.8479C23.2158 15.7908 24.137 16.2964 24.5342 16.7147C24.7327 16.9239 24.8581 17.2029 24.8857 17.5705L24.863 18.4754C24.9622 18.5055 25.0257 18.5658 25.0518 18.6656C25.0811 18.775 25.0485 18.9303 24.9525 19.1426C24.9508 19.1458 24.9492 19.1506 24.946 19.1537L24.5374 19.8082C24.3877 20.0491 24.2347 20.29 24.0361 20.4802C24.7734 21.5166 25.3773 21.0317 26.3132 21.5404ZM7 22.0872H8.28418V21.2155H8.47135V20.8003H9.0166V15.8082H7.90169V14.6133H23.4762V15.1886C23.11 15.0523 22.7324 14.9778 22.4004 15.0111C21.904 15.0602 21.7266 15.3074 21.7135 15.6609C21.6549 15.691 21.5964 15.7258 21.5378 15.7607C21.3148 15.8986 21.1146 16.0697 20.9551 16.2678C20.5286 16.7971 20.5124 17.2567 20.5221 17.8891L20.527 18.0903C20.4147 18.2282 20.3464 18.374 20.3138 18.5246V15.8082H18.5983V20.7987H19.1436V21.1426C19.0996 21.1727 19.0557 21.206 19.0117 21.2409C18.8994 21.3312 18.7985 21.4311 18.7122 21.5436C18.6243 21.6577 18.5332 21.8368 18.4551 22.0301C18.3916 22.187 18.3314 22.3677 18.2874 22.5277C18.263 22.5975 18.25 22.6735 18.25 22.7512C18.25 22.8384 18.2663 22.9239 18.2972 23H7V22.0872ZM11.6094 21.2155H12.2376V20.8003H12.7829V15.8082H11.0658V20.7987H11.611V21.2155H11.6094ZM15.3757 21.2155H16.0055V20.8003H16.5492V15.8082H14.832V20.7987H15.3773V21.2155H15.3757ZM19.7718 20.8479V20.7987H19.9411C19.8841 20.8146 19.8271 20.8304 19.7718 20.8479ZM20.3171 20.7036V18.9921C20.335 19.0903 20.3626 19.1886 20.3984 19.2868C20.4489 19.4136 20.5205 19.5452 20.6133 19.683L20.9876 20.2631C21.0332 20.3344 21.0804 20.4057 21.1325 20.4818C20.9388 20.5563 20.6572 20.6244 20.387 20.6878L20.3171 20.7036ZM12.8968 12.2837L15.7028 10.187L18.5251 12.2837H12.8968Z" fill="white"/>
</g>
<defs>
<clipPath id="clip0_1_1997">
<rect width="20" height="15" fill="white" transform="translate(7 8)"/>
</clipPath>
</defs>
</svg>
