<svg width="23" height="19" viewBox="0 0 23 19" fill="none" xmlns="http://www.w3.org/2000/svg">
<g clip-path="url(#clip0_1_1801)">
<path d="M5.32516 9.81982C5.32516 9.83915 5.32516 9.85848 5.32516 9.87605L6.15621 9.09229C6.27198 8.9829 6.40957 8.896 6.56112 8.83653C6.71266 8.77707 6.8752 8.74621 7.03945 8.74572C7.2037 8.74523 7.36644 8.77512 7.51838 8.83368C7.67033 8.89224 7.8085 8.97832 7.92501 9.08702C8.04152 9.19571 8.13409 9.32489 8.19742 9.46717C8.26076 9.60945 8.29363 9.76205 8.29415 9.91625C8.29467 10.0705 8.26284 10.2233 8.20046 10.3659C8.13809 10.5086 8.0464 10.6383 7.93063 10.7477L5.07996 13.4451C4.84995 13.6617 4.53912 13.7856 4.21342 13.7905C3.88772 13.7954 3.5728 13.681 3.33549 13.4715L0.426801 11.071C0.206974 10.8592 0.0804129 10.5773 0.072424 10.2816C0.0644351 9.98595 0.175607 9.69836 0.383711 9.47633C0.591815 9.25431 0.881514 9.11422 1.19488 9.08407C1.50825 9.05392 1.82219 9.13593 2.07394 9.31371L2.82263 9.9358C2.72763 8.01993 3.24942 6.1216 4.32003 4.48815C5.38221 2.86857 6.95104 1.59634 8.81222 0.84525C9.47588 0.578153 10.1654 0.371598 10.8711 0.228435C13.1312 -0.249635 15.4985 0.0361778 17.5562 1.03556C19.6139 2.03494 21.2301 3.68381 22.1203 5.6919C22.4046 6.31441 22.6222 6.96195 22.7698 7.62494C23.1292 9.19666 23.0447 10.8293 22.5246 12.3609C21.9964 13.8855 21.0592 15.2568 19.8031 16.3429C18.6036 17.4059 17.1583 18.1938 15.5804 18.645C14.3126 19.0016 12.977 19.0938 11.6673 18.915C10.3575 18.7362 9.1052 18.2908 7.99801 17.61C7.71977 17.4405 7.5246 17.1743 7.45545 16.8698C7.3863 16.5653 7.44883 16.2474 7.62927 15.9862C7.80972 15.725 8.09331 15.5417 8.41765 15.4768C8.742 15.4119 9.08053 15.4706 9.35877 15.64C9.6863 15.8445 10.0327 16.0209 10.3938 16.1672C10.7386 16.3053 11.0956 16.4146 11.4607 16.4941C12.5875 16.7425 13.7638 16.7098 14.8729 16.3992C16.0831 16.0485 17.1902 15.4391 18.1073 14.619C19.0539 13.8026 19.7588 12.7697 20.1531 11.6211C20.5429 10.4804 20.6074 9.26375 20.3403 8.09238C20.2245 7.58052 20.0566 7.0803 19.8387 6.59867C19.1757 5.09304 17.9656 3.85684 16.4234 3.10976C14.8813 2.36267 13.107 2.15307 11.4158 2.51821C10.8687 2.62742 10.3344 2.78754 9.82109 2.99619C8.42736 3.55127 7.25193 4.49947 6.45756 5.70948C5.64829 6.94145 5.25363 8.37395 5.32516 9.81982ZM11.3859 5.97483C11.3859 5.69006 11.5064 5.41696 11.7208 5.2156C11.9353 5.01424 12.2262 4.90111 12.5295 4.90111C12.8328 4.90111 13.1237 5.01424 13.3382 5.2156C13.5526 5.41696 13.6731 5.69006 13.6731 5.97483V9.31371L16.4602 10.767C16.7248 10.9054 16.9199 11.1369 17.0028 11.4104C17.0856 11.6839 17.0493 11.9772 16.9019 12.2256C16.7545 12.474 16.508 12.6572 16.2166 12.735C15.9253 12.8128 15.6129 12.7787 15.3484 12.6403L12.0597 10.9234C11.8589 10.8385 11.6885 10.7009 11.569 10.5273C11.4495 10.3537 11.3859 10.1513 11.3859 9.94458V5.97483Z" fill="black"/>
</g>
<defs>
<clipPath id="clip0_1_1801">
<rect width="23" height="19" fill="white"/>
</clipPath>
</defs>
</svg>
