<svg width="26" height="29" viewBox="0 0 26 29" fill="none" xmlns="http://www.w3.org/2000/svg">
<path d="M10.4379 23.6267V19.8388C10.4379 18.8789 11.2184 18.0991 12.1852 18.093H15.7352C16.7063 18.093 17.4936 18.8746 17.4936 19.8388V23.6157C17.4936 24.4483 18.1701 25.1249 19.0087 25.1309H21.4306C22.5617 25.1338 23.6475 24.6898 24.4484 23.8967C25.2493 23.1036 25.6994 22.0268 25.6994 20.9038V10.1438C25.6994 9.23667 25.2944 8.3762 24.5935 7.79419L16.3656 1.26136C14.9273 0.118695 12.8731 0.155607 11.4775 1.3492L3.42649 7.79419C2.6925 8.35904 2.2538 9.22207 2.23212 10.1438V20.8928C2.23212 23.2334 4.14332 25.1309 6.5009 25.1309H8.86754C9.27128 25.1338 9.65949 24.9767 9.94602 24.6942C10.2326 24.4118 10.3937 24.0276 10.3937 23.6267H10.4379Z" fill="#749000"/>
</svg>
