<svg width="33" height="33" viewBox="0 0 33 33" fill="none" xmlns="http://www.w3.org/2000/svg">
<circle cx="16.5" cy="16.5" r="16.5" fill="#749000"/>
<g clip-path="url(#clip0_1_1996)">
<path fill-rule="evenodd" clip-rule="evenodd" d="M21.399 14.91H23.9623V14.4001C23.8157 13.8422 23.5825 13.4639 23.2799 13.2336C22.9784 13.004 22.5861 12.9056 22.1262 12.9091L11.3592 12.9115C11.1006 12.9115 10.891 12.696 10.891 12.4297C10.891 12.1638 11.1006 11.9483 11.3592 11.9483L12.8592 11.9487C12.6994 11.6926 12.5646 11.4189 12.4571 11.1308C12.3975 10.968 12.3458 10.8032 12.3033 10.6342H10.5341C10.0954 10.6342 9.69595 10.8192 9.4062 11.1171C9.11684 11.4146 8.93684 11.8253 8.93684 12.2766V22.3947C8.93684 22.8453 9.11722 23.256 9.40696 23.5535C9.69557 23.8526 10.0954 24.0372 10.5341 24.0372H22.3647C22.8029 24.0372 23.2024 23.8518 23.4925 23.5543C23.7819 23.256 23.9623 22.8449 23.9623 22.3947V20.9514H21.399C20.6072 20.9514 19.8876 20.6183 19.3673 20.0831L19.3184 20.0284C18.8262 19.4959 18.5228 18.7787 18.5228 17.9943V17.8671C18.5228 17.0569 18.8463 16.3183 19.3673 15.7814L19.3723 15.7764C19.8944 15.2419 20.6118 14.91 21.399 14.91ZM24.8991 14.9374C25.1691 14.9928 25.411 15.1302 25.5986 15.3231C25.8458 15.5772 26 15.9294 26 16.3171V19.4842C26 19.8851 25.8394 20.2517 25.5796 20.5192C25.3931 20.7132 25.1573 20.8494 24.8991 20.9123V22.3947C24.8991 23.1088 24.6128 23.76 24.1537 24.2321L24.1518 24.234C23.6927 24.706 23.0592 25.0004 22.3647 25.0004H10.5341C9.83987 25.0004 9.2057 24.7064 8.74544 24.2336C8.28557 23.7628 8 23.1116 8 22.3947V12.2766C8 11.5594 8.28519 10.9078 8.74392 10.4358C9.20266 9.96419 9.83646 9.67099 10.5341 9.67099H12.17C12.1681 9.61945 12.1673 9.56753 12.1673 9.51521C12.1673 8.26977 12.6595 7.14029 13.4585 6.31729C15.1692 4.56352 17.9657 4.55962 19.6757 6.31729L19.7178 6.36453C20.4891 7.1805 20.9642 8.29203 20.9642 9.51521C20.9642 9.56753 20.963 9.61945 20.9615 9.67099H22.3647C23.06 9.67099 23.6934 9.96497 24.1529 10.4374C24.6132 10.9086 24.8991 11.561 24.8991 12.2766V14.9374ZM20.2719 11.9495H22.1137C22.7748 11.9432 23.3573 12.0978 23.8362 12.4629C23.8791 12.4957 23.9213 12.53 23.9623 12.5659V12.2766C23.9623 11.8269 23.7819 11.4158 23.4918 11.1175C23.2035 10.8188 22.8044 10.6342 22.3647 10.6342H20.8278C20.7861 10.8036 20.7344 10.9695 20.6744 11.1308C20.5673 11.4197 20.4322 11.693 20.2719 11.9495ZM15.849 7.52641C15.8475 7.33862 15.8304 7.20393 16.0575 7.20744L16.9863 7.21642C17.2229 7.21525 17.2859 7.29255 17.2833 7.52056V8.42477H18.1571C18.3397 8.4236 18.4704 8.40603 18.467 8.63911L18.4582 9.59407C18.4594 9.8377 18.3846 9.9025 18.1624 9.89977H17.2833V10.8032C17.2859 11.0316 17.2229 11.1089 16.9863 11.1073L16.0575 11.1163C15.8304 11.1198 15.8475 10.9855 15.849 10.7977V9.89977H14.9695C14.7473 9.9025 14.6722 9.83731 14.6737 9.59407L14.6649 8.63911C14.6611 8.40603 14.7922 8.4236 14.9748 8.42477H15.849V7.52641ZM16.5659 5.75977C18.5832 5.75977 20.2184 7.44091 20.2184 9.51521C20.2184 10.4795 19.8644 11.3592 19.283 12.024H13.8481C13.2667 11.3592 12.9132 10.4795 12.9132 9.51521C12.9132 7.44091 14.5484 5.75977 16.5659 5.75977ZM21.6363 16.7231C21.9451 16.7231 22.2253 16.8524 22.4281 17.0612C22.6324 17.2713 22.7581 17.5594 22.7581 17.8768C22.7581 18.1938 22.6324 18.482 22.4296 18.6908C22.2253 18.9009 21.9451 19.0301 21.6363 19.0301C21.328 19.0301 21.0481 18.9009 20.8446 18.6924L20.8423 18.6901C20.6395 18.4808 20.5146 18.1931 20.5146 17.8768C20.5146 17.5598 20.6403 17.2717 20.843 17.0628L20.8453 17.0604C21.0485 16.8524 21.3284 16.7231 21.6363 16.7231Z" fill="white"/>
</g>
<defs>
<clipPath id="clip0_1_1996">
<rect width="18" height="20" fill="white" transform="translate(8 5)"/>
</clipPath>
</defs>
</svg>
